<svg width="209" height="38" fill="none" xmlns="http://www.w3.org/2000/svg">
  <g clip-path="url(#a)" fill="#080A0E">
    <path d="M201.05 22.17c-.25.08-.44.1-.63.1-.8 0-1.46-.45-1.94-1.07l-2.09-2.58 2.68-3.33h1.83l-2.64 3.28 1.42 1.74c.21.27.47.45.81.45.12 0 .31 0 .57-.12v1.53Zm-4.77-6.87h-1.58v6.86h1.58V15.3Zm-8.3 5.37c.26.13.52.2.72.2.3 0 .56-.12.69-.31l-2.58-5.26h1.7l1.72 3.54h.06l1.42-3.54h1.68l-2.5 5.42c-.43.93-1.04 1.62-2.1 1.62-.3 0-.58-.03-.82-.1v-1.57h.01Zm-4.12-5.36h-1.67l-2.74 6.85h1.58l.58-1.48h2.77l.59 1.48h1.62l-2.74-6.85h.01Zm-1.75 4.13.89-2.2.88 2.2h-1.77Zm-20.01-4.13h-1.46l-3.23 4.53h-.05v-4.53h-1.58v6.85h1.46l3.2-4.54h.06v4.54h1.6v-6.85Zm35.85-13.74a3.52 3.52 0 0 0-3.55 3.55c0 2 1.6 3.55 3.55 3.55a3.54 3.54 0 0 0 3.55-3.55c0-2-1.57-3.55-3.55-3.55Zm0 5.63c-1.14 0-1.96-.78-1.96-2.08s.82-2.08 1.96-2.08c1.13 0 1.97.8 1.97 2.08 0 1.29-.84 2.08-1.97 2.08Zm-6.08-2.4c.4-.26.75-.73.75-1.27 0-1.14-.99-1.83-2.43-1.83h-2.39v6.84h2.76c1.52 0 2.43-.85 2.43-2.11 0-.75-.46-1.33-1.12-1.63Zm-2.5-1.8h.7c.56.01.95.24.95.72s-.31.73-.82.73h-.82V3Zm1.07 4.24h-1.07v-1.6h1.08c.5 0 .88.28.89.79-.01.51-.4.8-.9.8ZM161.27 1.7h4.18v1.4h-2.6v1.21h2.43v1.41h-2.42v1.41h2.65v1.41h-4.24V1.7Zm-7.25 0h5.62v1.42h-2.02v5.42h-1.59V3.12h-2.01V1.7Zm-13.9 3.97h-2.95v2.87h-1.59V1.7h1.59v2.56h2.95V1.7h1.59v6.84h-1.6V5.67Zm-6.8-3.97h-1.59v6.84h1.59V1.7Zm-5.39 6.84v-4.1h-.06l-1.63 3.03h-1.03l-1.63-3.03h-.05v4.1h-1.57V1.7h1.58l2.2 3.94 2.19-3.94h1.54v6.84h-1.54Zm17.63-6.84h-1.6v6.84h1.6V1.7Zm24.63 0h-2.58v6.84h1.58v-2.3h1c1.2 0 2.44-.85 2.44-2.27s-1.16-2.27-2.44-2.27Zm-.14 3.17h-.86v-1.8h.86c.55 0 .98.3.98.9 0 .52-.38.9-.98.9Zm10.5-3.17h5.62v1.42h-2.03v5.42h-1.58V3.12h-2V1.7Zm-54.92 13.49a3.53 3.53 0 0 0-3.56 3.55c0 2 1.6 3.55 3.56 3.55a3.53 3.53 0 0 0 3.56-3.55c0-2-1.58-3.55-3.56-3.55Zm0 5.63c-1.14 0-1.96-.78-1.96-2.08s.82-2.08 1.96-2.08c1.14 0 1.97.8 1.97 2.08 0 1.27-.83 2.08-1.97 2.08Zm16.63-2.4c.41-.26.75-.73.75-1.27 0-1.13-1-1.84-2.43-1.84h-2.39v6.85h2.76c1.52 0 2.43-.85 2.43-2.11a1.8 1.8 0 0 0-1.12-1.63Zm-2.5-1.8h.7c.56.01.95.24.95.72s-.31.73-.82.73h-.82v-1.45Zm1.08 4.23h-1.07v-1.6h1.08c.5 0 .88.28.89.8-.01.5-.4.8-.9.8Zm35.73-1.55h-2.95v2.86h-1.59v-6.85h1.59v2.58h2.95V15.3h1.57v6.85h-1.57V19.3Zm-29.71-3.99h-1.59v6.85h1.6v-6.85Zm1.68 0h5.62v1.43h-2.03v5.42h-1.59v-5.42h-2V15.3Zm-12.42 5.07a3.9 3.9 0 0 1-1.83.45c-1.15 0-2.04-.77-2.04-2.08 0-1.3.84-2.08 2-2.08.52 0 1.26.13 1.8.46v-1.61a5.45 5.45 0 0 0-1.79-.33 3.56 3.56 0 1 0 .04 7.12c.56 0 1.27-.11 1.8-.33v-1.6h.02Zm31.73-5.07h-1.58v6.85h1.58v-6.85Zm41.15 0h-1.45l-3.22 4.53h-.06v-4.53h-1.59v6.85h1.47l3.22-4.54h.04v4.54H209v-6.85Zm-56.17-8.55a3.9 3.9 0 0 1-1.84.45c-1.15 0-2.04-.77-2.04-2.08 0-1.3.85-2.08 2-2.08.53 0 1.27.14 1.8.47V1.9c-.53-.2-1.2-.33-1.78-.33a3.56 3.56 0 1 0 .03 7.12 5 5 0 0 0 1.8-.33v-1.6h.03Zm26.52 0c-.56.33-1.3.45-1.84.45-1.14 0-2.03-.77-2.03-2.08 0-1.3.84-2.08 1.99-2.08.53 0 1.27.14 1.8.47V1.9c-.53-.2-1.2-.33-1.78-.33a3.56 3.56 0 1 0 .03 7.12 5 5 0 0 0 1.8-.33v-1.6h.03Zm-42.87 29.07a1.9 1.9 0 0 1-.63.09c-.8 0-1.46-.46-1.96-1.08l-2.08-2.57 2.68-3.34h1.81l-2.63 3.28 1.42 1.74c.21.28.47.45.8.45.12 0 .31 0 .57-.12v1.54h.02Z"/>
    <path d="M132 28.96h-1.57v6.86H132v-6.86Zm-8.3 5.37c.25.12.51.19.71.19.28 0 .56-.12.7-.3l-2.6-5.26h1.7l1.73 3.53h.06l1.42-3.53h1.68l-2.5 5.41c-.43.95-1.04 1.63-2.1 1.63a2.4 2.4 0 0 1-.82-.12v-1.55h.01Zm24.22-5.36h-1.68l-2.73 6.85h1.56l.59-1.48h2.77l.58 1.48h1.63l-2.73-6.85Zm-1.76 4.13.9-2.21.88 2.2h-1.78Zm14.15-.16h-2.95v2.88h-1.58v-6.85h1.58v2.56h2.95v-2.56h1.59v6.85h-1.59v-2.88Zm-6.8-3.97h-1.58v6.85h1.58v-6.85Zm16.97 0h-1.44l-3.23 4.52h-.06v-4.52h-1.58v6.85h1.47l3.2-4.54h.06v4.54h1.58v-6.85Zm-29.77-.01h-2.59v6.84h1.6v-2.28h.98c1.2 0 2.45-.86 2.45-2.28s-1.16-2.27-2.45-2.27l.01-.01Zm-.14 3.17h-.86v-1.8h.86c.55 0 .98.29.98.9 0 .52-.39.9-.98.9Zm11.77-5.12h-1.27v1.2h1.27v-1.2Zm2.04 0h-1.27v1.2h1.27v-1.2ZM68.93 0a18.9 18.9 0 0 0-18.8 19c0 10.49 8.42 19 18.8 19a18.9 18.9 0 0 0 18.8-19c0-10.49-8.42-19-18.8-19Zm0 30.12c-6.08 0-11-4.99-11-11.13 0-6.15 4.93-11.12 11-11.12s11 4.99 11 11.12c0 6.13-4.93 11.13-11 11.13Zm41.32-7.08H95.34v13.14h14.91V23.04Zm0-21.22H95.34v13.14h14.91V1.82Z"/>
    <path fill-rule="evenodd" clip-rule="evenodd" d="M11.18 37.92s-.07-.07-.08-.1a3.99 3.99 0 0 0-1.07-1.14 10.4 10.4 0 0 1-3.76-6.06c-.02-.16-.09-.22-.26-.22l-5.76-.03c-.25 0-.25 0-.25-.25V3.07c.26.15.47.26.68.41.51.39 1.03.79 1.53 1.2a11.7 11.7 0 0 1 3.48 5.87c.32 1.34.39 2.72.56 4.08.2 1.6.38 3.21.57 4.81l.04.31c.03.24.03.23-.22.25-.28.02-.58.04-.84.14a1.88 1.88 0 0 0-.75 2.93c.3.39.72.58 1.19.69l.89.18c.1.02.16 0 .21-.1.38-.78.81-1.55 1.15-2.35.34-.8.62-1.65.88-2.49.47-1.49.82-3 .85-4.57.02-1.15 0-2.31-.07-3.46-.07-1.7-.21-3.42-.3-5.12-.05-.75-.07-1.5-.05-2.25A5.44 5.44 0 0 1 10.9.57c.31-.43.29-.34.55 0a5.02 5.02 0 0 1 1.08 2.93c.02.97-.02 1.94-.07 2.9-.1 2.18-.25 4.35-.35 6.54-.09 1.92.18 3.82.73 5.66.35 1.16.72 2.32 1.23 3.43.28.6.6 1.18.9 1.78.06.13.13.18.28.14.43-.11.88-.16 1.29-.32.73-.27 1.1-.84 1.16-1.63a1.83 1.83 0 0 0-1.35-1.93c-.23-.06-.47-.05-.7-.07l-.2-.01.16-1.4c.2-1.64.38-3.26.59-4.9.13-1.1.2-2.22.5-3.31a11.54 11.54 0 0 1 2.05-4.2c.32-.39.63-.8 1-1.15.75-.74 1.57-1.39 2.5-1.91l.1-.05.02.22V30.1c0 .25 0 .25-.24.25l-5.78.05c-.17 0-.24.05-.29.23a10.38 10.38 0 0 1-4.02 6.28c-.28.23-.49.52-.73.8-.05.05-.09.13-.15.22l.02-.01ZM1.89 7.03l-.07.02v13.76c0 .1.04.14.14.14.26 0 .5-.03.76-.02.13 0 .18-.05.23-.17.31-.94.88-1.68 1.77-2.16.1-.06.13-.12.12-.24l-.09-.7-.62-5.24a9.99 9.99 0 0 0-1.77-4.76l-.46-.62Zm18.62 13.9V7.04s-.04 0-.07-.02c-.2.28-.41.57-.6.86a9.48 9.48 0 0 0-1.57 4.13c-.27 2.1-.5 4.23-.75 6.33-.03.16.05.22.16.3.24.16.48.3.7.5.5.45.85 1.02 1.05 1.68.01.05.08.1.11.1h.97v.01ZM1.82 25.67v2.65c0 .15.04.2.2.2h3.8c.15 0 .21-.04.21-.2.05-.83.13-1.65.35-2.46.04-.1 0-.14-.1-.16-.2-.04-.42-.09-.62-.15A3.74 3.74 0 0 1 2.96 23c-.03-.12-.1-.17-.24-.16-.22.02-.46.03-.68.03-.15 0-.2.04-.2.2v2.6h-.02Zm16.59 2.83h1.88c.18 0 .24-.06.23-.24v-.1l.01-2.16v-3c0-.12-.04-.15-.14-.15l-.62-.03c-.3 0-.3 0-.4.29a3.64 3.64 0 0 1-2.09 2.24c-.37.15-.78.23-1.17.33-.12.03-.17.09-.12.21.2.8.3 1.6.33 2.43 0 .15.06.2.2.2h1.9l-.01-.02Zm-9.27-4.1.88.44c.4.21.73.5 1.02.83.14.16.15.17.27.02.35-.43.8-.74 1.28-.99.2-.1.41-.18.64-.28-.85-1.47-1.53-3-2.05-4.61-.52 1.6-1.2 3.14-2.04 4.6Zm5.1 5.99h-1.91c-.17 0-.23.04-.22.21v3.55l.01.22a8.76 8.76 0 0 0 2.12-3.98Zm-6.11.01c.16 1.15 1.5 3.63 2.1 3.9v-3.77c0-.13-.06-.14-.18-.14H8.26l-.14.01Zm.94-1.9h.95c.21 0 .25-.02.2-.24-.08-.32-.14-.65-.3-.93-.3-.6-.82-.98-1.5-1.14-.13-.03-.22 0-.26.15a9.23 9.23 0 0 0-.28 1.99c0 .12.05.16.17.16h1.01l.01.01Zm4.2 0h1c.12 0 .17-.02.17-.16 0-.66-.09-1.3-.26-1.94-.06-.24-.09-.26-.33-.19a2.33 2.33 0 0 0-1.72 2.13c0 .11.03.16.14.16h1.01-.02Z"/>
    <path d="M37.37 1.98h-.95v34.48h.95V1.98Z"/>
  </g>
  <defs>
    <clipPath id="a">
      <path fill="#fff" d="M0 0h209v38H0z"/>
    </clipPath>
  </defs>
</svg>