<svg width="103" height="39" fill="none" xmlns="http://www.w3.org/2000/svg">
  <path d="M100.98 34.84h-3.44v3.24H96.1v-7.66h1.44v3.24h3.44v-3.24h1.45v7.66h-1.45v-3.24Zm-7.95-5.53c-.43.46-1.01.72-1.72.72s-1.3-.28-1.72-.73l.68-.67c.23.25.6.4 1.04.4.44 0 .8-.14 1.04-.39l.68.67Zm.05 8.77V33.2L89 38.08h-.91v-7.66h1.44v4.88l4.09-4.88h.9v7.66h-1.44Zm-8.32-1.68H81.5l-.68 1.68h-1.67l3.3-7.66h1.34l3.3 7.66H85.4l-.65-1.67Zm-1.64-4.1L82 35.13h2.26l-1.14-2.83Zm-8.66 2.15c0 2.58-.76 3.7-2.09 3.7-.2 0-.5-.02-.68-.07v-.9c.81 0 1.27-.42 1.27-2.69v-4.07h5.18v7.66h-1.49V31.6h-2.19v2.85Zm-3.37-.2c0 1.85-1.33 3.12-3.29 3.12v.71h-1.45v-.71c-1.96 0-3.3-1.27-3.3-3.12s1.34-3.12 3.3-3.12v-.71h1.45v.7c1.96 0 3.29 1.28 3.29 3.13Zm-1.5 0c0-1.1-.73-1.84-1.79-1.84v3.68c1.06 0 1.8-.75 1.8-1.84Zm-5.03 0c0 1.1.73 1.84 1.8 1.84V32.4c-1.07 0-1.8.74-1.8 1.84Zm-2.58 0a3.74 3.74 0 0 1-3.94 3.94 3.74 3.74 0 0 1-3.93-3.94c0-2.34 1.6-3.94 3.93-3.94 2.35 0 3.94 1.6 3.94 3.94Zm-6.37 0c0 1.58 1 2.66 2.43 2.66 1.44 0 2.44-1.08 2.44-2.66s-1-2.66-2.44-2.66-2.43 1.08-2.43 2.66Zm38.06-8.85h-3.26l-.68 1.68h-1.68l3.3-7.66h1.35l3.3 7.66h-1.68l-.65-1.67Zm-1.64-4.1-1.12 2.83h2.26l-1.14-2.83Zm-8.66 2.15c0 2.58-.76 3.7-2.09 3.7-.2 0-.5-.02-.68-.07v-.9c.81 0 1.27-.42 1.27-2.69v-4.07h5.18v7.66h-1.49V20.6h-2.19v2.85Zm-3.38-.2a3.74 3.74 0 0 1-3.94 3.94 3.74 3.74 0 0 1-3.93-3.94c0-2.34 1.6-3.94 3.93-3.94 2.35 0 3.94 1.6 3.94 3.94Zm-6.37 0c0 1.58 1 2.66 2.43 2.66 1.44 0 2.44-1.08 2.44-2.66s-1-2.66-2.44-2.66-2.43 1.08-2.43 2.66Zm-3.78 3.83-2.88-3.78v3.78H65.5v-7.66h1.45v3.53l2.65-3.53h1.82l-2.78 3.7 3.05 3.96h-1.86Zm-7.34-7.66h1.44v7.66h-9.57v-7.66h1.45v6.48h2.61v-6.48h1.45v6.48h2.62v-6.48Z" fill="#000"/>
  <path fill-rule="evenodd" clip-rule="evenodd" d="M46.51 22.81c0-6.16-2.45-11.64-6.81-16a23.26 23.26 0 0 0-32.89 0C2.45 11.17 0 16.65 0 22.81h12.56v-4.53H9.3l8.66-6.97h10.59l8.66 6.97h-3.26v4.53h12.56Zm-20-4.67v13.63h7.58v6.46h-1.76a12.38 12.38 0 0 1-12.38-12.38v-7.71h6.56Z" fill="#000"/>
</svg>